<?xml version="1.0" encoding="UTF-8" standalone="no"?>
<svg
   height="809.80mm"
   viewBox="0.0 0.0 453.40 809.80"
   width="453.40mm"
   version="1.1"
   id="svg36"
   sodipodi:docname="structure design.svg"
   inkscape:version="1.4 (86a8ad7, 2024-10-11)"
   xmlns:inkscape="http://www.inkscape.org/namespaces/inkscape"
   xmlns:sodipodi="http://sodipodi.sourceforge.net/DTD/sodipodi-0.dtd"
   xmlns="http://www.w3.org/2000/svg"
   xmlns:svg="http://www.w3.org/2000/svg"
   xmlns:rdf="http://www.w3.org/1999/02/22-rdf-syntax-ns#"
   xmlns:cc="http://creativecommons.org/ns#"
   xmlns:dc="http://purl.org/dc/elements/1.1/">
  <defs
     id="defs36" />
  <sodipodi:namedview
     id="namedview36"
     pagecolor="#ffffff"
     bordercolor="#000000"
     borderopacity="0.25"
     inkscape:showpageshadow="2"
     inkscape:pageopacity="0.0"
     inkscape:pagecheckerboard="0"
     inkscape:deskcolor="#d1d1d1"
     inkscape:document-units="mm"
     inkscape:zoom="0.29"
     inkscape:cx="1162.069"
     inkscape:cy="1874.1379"
     inkscape:window-width="1920"
     inkscape:window-height="1046"
     inkscape:window-x="-11"
     inkscape:window-y="-11"
     inkscape:window-maximized="1"
     inkscape:current-layer="svg36" />
  <!--
ABox - A simple Box


This box is kept simple on purpose. If you need more features have a look at the UniversalBox.


Created with Boxes.py (https://boxes.hackerspace-bamberg.de/)
Creation date: 2025-04-07 12:08:01
Command line (remove spaces between dashes): boxes ABox - -x=260 - -y=170 - -h=300 - -thickness=6.0
Url: https://boxes.hackerspace-bamberg.de/ABox?FingerJoint_style=rectangular&FingerJoint_surroundingspaces=2.0&FingerJoint_bottom_lip=0.0&FingerJoint_edge_width=1.0&FingerJoint_extra_length=0.0&FingerJoint_finger=2.0&FingerJoint_play=0.0&FingerJoint_space=2.0&FingerJoint_width=1.0&Lid_handle=none&Lid_style=none&Lid_handle_height=8.0&Lid_height=4.0&Lid_play=0.1&x=260&y=170&h=300&outside=0&outside=1&bottom_edge=h&thickness=6.0&format=svg&tabs=0.0&qr_code=0&debug=0&labels=0&labels=1&reference=100.0&inner_corners=loop&burn=0.1&language=en&render=2
Url short: https://boxes.hackerspace-bamberg.de/ABox?x=260&y=170&h=300&thickness=6.0
SettingsUrl: https://boxes.hackerspace-bamberg.de/ABox?FingerJoint_style=rectangular&FingerJoint_surroundingspaces=2.0&FingerJoint_bottom_lip=0.0&FingerJoint_edge_width=1.0&FingerJoint_extra_length=0.0&FingerJoint_finger=2.0&FingerJoint_play=0.0&FingerJoint_space=2.0&FingerJoint_width=1.0&Lid_handle=none&Lid_style=none&Lid_handle_height=8.0&Lid_height=4.0&Lid_play=0.1&x=260&y=170&h=300&outside=0&outside=1&bottom_edge=h&thickness=6.0&format=svg&tabs=0.0&qr_code=0&debug=0&labels=0&labels=1&reference=100.0&inner_corners=loop&burn=0.1&language=en&render=2
SettingsUrl short: https://boxes.hackerspace-bamberg.de/ABox?x=260&y=170&h=300&thickness=6.0
-->
  <title
     id="title1">ABox</title>
  <metadata
     id="metadata1">
    <rdf:RDF>
      <cc:Work>
        <dc:title>ABox</dc:title>
        <dc:date>2025-04-07 12:08:01</dc:date>
        <dc:source>https://boxes.hackerspace-bamberg.de/ABox?FingerJoint_style=rectangular&amp;FingerJoint_surroundingspaces=2.0&amp;FingerJoint_bottom_lip=0.0&amp;FingerJoint_edge_width=1.0&amp;FingerJoint_extra_length=0.0&amp;FingerJoint_finger=2.0&amp;FingerJoint_play=0.0&amp;FingerJoint_space=2.0&amp;FingerJoint_width=1.0&amp;Lid_handle=none&amp;Lid_style=none&amp;Lid_handle_height=8.0&amp;Lid_height=4.0&amp;Lid_play=0.1&amp;x=260&amp;y=170&amp;h=300&amp;outside=0&amp;outside=1&amp;bottom_edge=h&amp;thickness=6.0&amp;format=svg&amp;tabs=0.0&amp;qr_code=0&amp;debug=0&amp;labels=0&amp;labels=1&amp;reference=100.0&amp;inner_corners=loop&amp;burn=0.1&amp;language=en&amp;render=2</dc:source>
        <dc:source>https://boxes.hackerspace-bamberg.de/ABox?x=260&amp;y=170&amp;h=300&amp;thickness=6.0</dc:source>
        <dc:description>A simple Box

This box is kept simple on purpose. If you need more features have a look at the UniversalBox.

Created with Boxes.py (https://boxes.hackerspace-bamberg.de/)
Command line: boxes ABox --FingerJoint_style=rectangular --FingerJoint_surroundingspaces=2.0 --FingerJoint_bottom_lip=0.0 --FingerJoint_edge_width=1.0 --FingerJoint_extra_length=0.0 --FingerJoint_finger=2.0 --FingerJoint_play=0.0 --FingerJoint_space=2.0 --FingerJoint_width=1.0 --Lid_handle=none --Lid_style=none --Lid_handle_height=8.0 --Lid_height=4.0 --Lid_play=0.1 --x=260 --y=170 --h=300 --outside=0 --outside=1 --bottom_edge=h --thickness=6.0 --format=svg --tabs=0.0 --qr_code=0 --debug=0 --labels=0 --labels=1 --reference=100.0 --inner_corners=loop --burn=0.1
Command line short: boxes ABox --x=260 --y=170 --h=300 --thickness=6.0
Url: https://boxes.hackerspace-bamberg.de/ABox?FingerJoint_style=rectangular&amp;FingerJoint_surroundingspaces=2.0&amp;FingerJoint_bottom_lip=0.0&amp;FingerJoint_edge_width=1.0&amp;FingerJoint_extra_length=0.0&amp;FingerJoint_finger=2.0&amp;FingerJoint_play=0.0&amp;FingerJoint_space=2.0&amp;FingerJoint_width=1.0&amp;Lid_handle=none&amp;Lid_style=none&amp;Lid_handle_height=8.0&amp;Lid_height=4.0&amp;Lid_play=0.1&amp;x=260&amp;y=170&amp;h=300&amp;outside=0&amp;outside=1&amp;bottom_edge=h&amp;thickness=6.0&amp;format=svg&amp;tabs=0.0&amp;qr_code=0&amp;debug=0&amp;labels=0&amp;labels=1&amp;reference=100.0&amp;inner_corners=loop&amp;burn=0.1&amp;language=en&amp;render=2
Url short: https://boxes.hackerspace-bamberg.de/ABox?x=260&amp;y=170&amp;h=300&amp;thickness=6.0
SettingsUrl: https://boxes.hackerspace-bamberg.de/ABox?FingerJoint_style=rectangular&amp;FingerJoint_surroundingspaces=2.0&amp;FingerJoint_bottom_lip=0.0&amp;FingerJoint_edge_width=1.0&amp;FingerJoint_extra_length=0.0&amp;FingerJoint_finger=2.0&amp;FingerJoint_play=0.0&amp;FingerJoint_space=2.0&amp;FingerJoint_width=1.0&amp;Lid_handle=none&amp;Lid_style=none&amp;Lid_handle_height=8.0&amp;Lid_height=4.0&amp;Lid_play=0.1&amp;x=260&amp;y=170&amp;h=300&amp;outside=0&amp;outside=1&amp;bottom_edge=h&amp;thickness=6.0&amp;format=svg&amp;tabs=0.0&amp;qr_code=0&amp;debug=0&amp;labels=0&amp;labels=1&amp;reference=100.0&amp;inner_corners=loop&amp;burn=0.1&amp;language=en&amp;render=2
SettingsUrl short: https://boxes.hackerspace-bamberg.de/ABox?x=260&amp;y=170&amp;h=300&amp;thickness=6.0
</dc:description>
      </cc:Work>
    </rdf:RDF>
  </metadata>
  <g
     id="p-0"
     style="fill:none;stroke-linecap:round;stroke-linejoin:round;">
    <path
       d="M 10.100 799.800 H 110.100 V 789.800 H 10.100 V 799.800 Z"
       stroke="rgb(0,0,0)"
       stroke-width="0.20"
       id="path1" />
    <text
       dominant-baseline="hanging"
       font-size="6px"
       style="font-family: sans-serif ; font-weight: normal; font-style: normal; fill: rgb(255,0,0)"
       text-anchor="middle"
       transform="matrix( 1.000 0.000 0.000 1.000 60.100 791.800 )"
       id="text1">100.0mm, burn:0.10mm</text>
  </g>
  <g
     id="p-1"
     style="fill:none;stroke-linecap:round;stroke-linejoin:round;stroke-width:0.02;stroke-dasharray:none">
    <path
       d="M 44.100 780.400 H 38.200 C 38.100 780.400 38.200 780.500 38.200 780.400 V 774.600 C 38.200 774.500 38.100 774.600 38.200 774.600 H 50.000 C 50.100 774.600 50.000 774.500 50.000 774.600 V 780.400 C 50.000 780.500 50.100 780.400 50.000 780.400 H 44.100 Z"
       stroke="rgb(0,0,255)"
       stroke-width="0.20"
       id="path2"
       style="stroke-width:0.02;stroke-dasharray:none" />
    <path
       d="M 68.100 780.400 H 62.200 C 62.100 780.400 62.200 780.500 62.200 780.400 V 774.600 C 62.200 774.500 62.100 774.600 62.200 774.600 H 74.000 C 74.100 774.600 74.000 774.500 74.000 774.600 V 780.400 C 74.000 780.500 74.100 780.400 74.000 780.400 H 68.100 Z"
       stroke="rgb(0,0,255)"
       stroke-width="0.20"
       id="path3"
       style="stroke-width:0.02;stroke-dasharray:none" />
    <path
       d="M 92.100 780.400 H 86.200 C 86.100 780.400 86.200 780.500 86.200 780.400 V 774.600 C 86.200 774.500 86.100 774.600 86.200 774.600 H 98.000 C 98.100 774.600 98.000 774.500 98.000 774.600 V 780.400 C 98.000 780.500 98.100 780.400 98.000 780.400 H 92.100 Z"
       stroke="rgb(0,0,255)"
       stroke-width="0.20"
       id="path4"
       style="stroke-width:0.02;stroke-dasharray:none" />
    <path
       d="M 116.100 780.400 H 110.200 C 110.100 780.400 110.200 780.500 110.200 780.400 V 774.600 C 110.200 774.500 110.100 774.600 110.200 774.600 H 122.000 C 122.100 774.600 122.000 774.500 122.000 774.600 V 780.400 C 122.000 780.500 122.100 780.400 122.000 780.400 H 116.100 Z"
       stroke="rgb(0,0,255)"
       stroke-width="0.20"
       id="path5"
       style="stroke-width:0.02;stroke-dasharray:none" />
    <path
       d="M 140.100 780.400 H 134.200 C 134.100 780.400 134.200 780.500 134.200 780.400 V 774.600 C 134.200 774.500 134.100 774.600 134.200 774.600 H 146.000 C 146.100 774.600 146.000 774.500 146.000 774.600 V 780.400 C 146.000 780.500 146.100 780.400 146.000 780.400 H 140.100 Z"
       stroke="rgb(0,0,255)"
       stroke-width="0.20"
       id="path6"
       style="stroke-width:0.02;stroke-dasharray:none" />
    <path
       d="M 164.100 780.400 H 158.200 C 158.100 780.400 158.200 780.500 158.200 780.400 V 774.600 C 158.200 774.500 158.100 774.600 158.200 774.600 H 170.000 C 170.100 774.600 170.000 774.500 170.000 774.600 V 780.400 C 170.000 780.500 170.100 780.400 170.000 780.400 H 164.100 Z"
       stroke="rgb(0,0,255)"
       stroke-width="0.20"
       id="path7"
       style="stroke-width:0.02;stroke-dasharray:none" />
    <path
       d="M 188.100 780.400 H 182.200 C 182.100 780.400 182.200 780.500 182.200 780.400 V 774.600 C 182.200 774.500 182.100 774.600 182.200 774.600 H 194.000 C 194.100 774.600 194.000 774.500 194.000 774.600 V 780.400 C 194.000 780.500 194.100 780.400 194.000 780.400 H 188.100 Z"
       stroke="rgb(0,0,255)"
       stroke-width="0.20"
       id="path8"
       style="stroke-width:0.02;stroke-dasharray:none" />
    <path
       d="M 212.100 780.400 H 206.200 C 206.100 780.400 206.200 780.500 206.200 780.400 V 774.600 C 206.200 774.500 206.100 774.600 206.200 774.600 H 218.000 C 218.100 774.600 218.000 774.500 218.000 774.600 V 780.400 C 218.000 780.500 218.100 780.400 218.000 780.400 H 212.100 Z"
       stroke="rgb(0,0,255)"
       stroke-width="0.20"
       id="path9"
       style="stroke-width:0.02;stroke-dasharray:none" />
    <path
       d="M 236.100 780.400 H 230.200 C 230.100 780.400 230.200 780.500 230.200 780.400 V 774.600 C 230.200 774.500 230.100 774.600 230.200 774.600 H 242.000 C 242.100 774.600 242.000 774.500 242.000 774.600 V 780.400 C 242.000 780.500 242.100 780.400 242.000 780.400 H 236.100 Z"
       stroke="rgb(0,0,255)"
       stroke-width="0.20"
       id="path10"
       style="stroke-width:0.02;stroke-dasharray:none" />
    <path
       d="M 16.100 786.600 H 264.100 H 270.100 C 270.155 786.600 270.200 786.555 270.200 786.500 V 774.500 C 270.200 774.445 270.155 774.400 270.100 774.400 H 264.200 C 264.100 774.400 264.200 774.500 264.200 774.400 V 762.600 C 264.200 762.500 264.100 762.600 264.200 762.600 H 270.100 C 270.155 762.600 270.200 762.555 270.200 762.500 V 750.500 C 270.200 750.445 270.155 750.400 270.100 750.400 H 264.200 C 264.100 750.400 264.200 750.500 264.200 750.400 V 738.600 C 264.200 738.500 264.100 738.600 264.200 738.600 H 270.100 C 270.155 738.600 270.200 738.555 270.200 738.500 V 726.500 C 270.200 726.445 270.155 726.400 270.100 726.400 H 264.200 C 264.100 726.400 264.200 726.500 264.200 726.400 V 714.600 C 264.200 714.500 264.100 714.600 264.200 714.600 H 270.100 C 270.155 714.600 270.200 714.555 270.200 714.500 V 702.500 C 270.200 702.445 270.155 702.400 270.100 702.400 H 264.200 C 264.100 702.400 264.200 702.500 264.200 702.400 V 690.600 C 264.200 690.500 264.100 690.600 264.200 690.600 H 270.100 C 270.155 690.600 270.200 690.555 270.200 690.500 V 678.500 C 270.200 678.445 270.155 678.400 270.100 678.400 H 264.200 C 264.100 678.400 264.200 678.500 264.200 678.400 V 666.600 C 264.200 666.500 264.100 666.600 264.200 666.600 H 270.100 C 270.155 666.600 270.200 666.555 270.200 666.500 V 654.500 C 270.200 654.445 270.155 654.400 270.100 654.400 H 264.200 C 264.100 654.400 264.200 654.500 264.200 654.400 V 642.600 C 264.200 642.500 264.100 642.600 264.200 642.600 H 270.100 C 270.155 642.600 270.200 642.555 270.200 642.500 V 630.500 C 270.200 630.445 270.155 630.400 270.100 630.400 H 264.200 C 264.100 630.400 264.200 630.500 264.200 630.400 V 618.600 C 264.200 618.500 264.100 618.600 264.200 618.600 H 270.100 C 270.155 618.600 270.200 618.555 270.200 618.500 V 606.500 C 270.200 606.445 270.155 606.400 270.100 606.400 H 264.200 C 264.100 606.400 264.200 606.500 264.200 606.400 V 594.600 C 264.200 594.500 264.100 594.600 264.200 594.600 H 270.100 C 270.155 594.600 270.200 594.555 270.200 594.500 V 582.500 C 270.200 582.445 270.155 582.400 270.100 582.400 H 264.200 C 264.100 582.400 264.200 582.500 264.200 582.400 V 570.600 C 264.200 570.500 264.100 570.600 264.200 570.600 H 270.100 C 270.155 570.600 270.200 570.555 270.200 570.500 V 558.500 C 270.200 558.445 270.155 558.400 270.100 558.400 H 264.200 C 264.100 558.400 264.200 558.500 264.200 558.400 V 546.600 C 264.200 546.500 264.100 546.600 264.200 546.600 H 270.100 C 270.155 546.600 270.200 546.555 270.200 546.500 V 534.500 C 270.200 534.445 270.155 534.400 270.100 534.400 H 264.200 C 264.100 534.400 264.200 534.500 264.200 534.400 V 522.600 C 264.200 522.500 264.100 522.600 264.200 522.600 H 270.100 C 270.155 522.600 270.200 522.555 270.200 522.500 V 510.500 C 270.200 510.445 270.155 510.400 270.100 510.400 H 264.200 C 264.100 510.400 264.200 510.500 264.200 510.400 V 498.600 C 264.200 498.500 264.100 498.600 264.200 498.600 H 270.100 C 270.155 498.600 270.200 498.555 270.200 498.500 V 486.500 C 270.200 486.445 270.155 486.400 270.100 486.400 H 264.100 H 16.100 H 10.100 C 10.045 486.400 10.000 486.445 10.000 486.500 V 498.500 C 10.000 498.555 10.045 498.600 10.100 498.600 H 16.000 C 16.100 498.600 16.000 498.500 16.000 498.600 V 510.400 C 16.000 510.500 16.100 510.400 16.000 510.400 H 10.100 C 10.045 510.400 10.000 510.445 10.000 510.500 V 522.500 C 10.000 522.555 10.045 522.600 10.100 522.600 H 16.000 C 16.100 522.600 16.000 522.500 16.000 522.600 V 534.400 C 16.000 534.500 16.100 534.400 16.000 534.400 H 10.100 C 10.045 534.400 10.000 534.445 10.000 534.500 V 546.500 C 10.000 546.555 10.045 546.600 10.100 546.600 H 16.000 C 16.100 546.600 16.000 546.500 16.000 546.600 V 558.400 C 16.000 558.500 16.100 558.400 16.000 558.400 H 10.100 C 10.045 558.400 10.000 558.445 10.000 558.500 V 570.500 C 10.000 570.555 10.045 570.600 10.100 570.600 H 16.000 C 16.100 570.600 16.000 570.500 16.000 570.600 V 582.400 C 16.000 582.500 16.100 582.400 16.000 582.400 H 10.100 C 10.045 582.400 10.000 582.445 10.000 582.500 V 594.500 C 10.000 594.555 10.045 594.600 10.100 594.600 H 16.000 C 16.100 594.600 16.000 594.500 16.000 594.600 V 606.400 C 16.000 606.500 16.100 606.400 16.000 606.400 H 10.100 C 10.045 606.400 10.000 606.445 10.000 606.500 V 618.500 C 10.000 618.555 10.045 618.600 10.100 618.600 H 16.000 C 16.100 618.600 16.000 618.500 16.000 618.600 V 630.400 C 16.000 630.500 16.100 630.400 16.000 630.400 H 10.100 C 10.045 630.400 10.000 630.445 10.000 630.500 V 642.500 C 10.000 642.555 10.045 642.600 10.100 642.600 H 16.000 C 16.100 642.600 16.000 642.500 16.000 642.600 V 654.400 C 16.000 654.500 16.100 654.400 16.000 654.400 H 10.100 C 10.045 654.400 10.000 654.445 10.000 654.500 V 666.500 C 10.000 666.555 10.045 666.600 10.100 666.600 H 16.000 C 16.100 666.600 16.000 666.500 16.000 666.600 V 678.400 C 16.000 678.500 16.100 678.400 16.000 678.400 H 10.100 C 10.045 678.400 10.000 678.445 10.000 678.500 V 690.500 C 10.000 690.555 10.045 690.600 10.100 690.600 H 16.000 C 16.100 690.600 16.000 690.500 16.000 690.600 V 702.400 C 16.000 702.500 16.100 702.400 16.000 702.400 H 10.100 C 10.045 702.400 10.000 702.445 10.000 702.500 V 714.500 C 10.000 714.555 10.045 714.600 10.100 714.600 H 16.000 C 16.100 714.600 16.000 714.500 16.000 714.600 V 726.400 C 16.000 726.500 16.100 726.400 16.000 726.400 H 10.100 C 10.045 726.400 10.000 726.445 10.000 726.500 V 738.500 C 10.000 738.555 10.045 738.600 10.100 738.600 H 16.000 C 16.100 738.600 16.000 738.500 16.000 738.600 V 750.400 C 16.000 750.500 16.100 750.400 16.000 750.400 H 10.100 C 10.045 750.400 10.000 750.445 10.000 750.500 V 762.500 C 10.000 762.555 10.045 762.600 10.100 762.600 H 16.000 C 16.100 762.600 16.000 762.500 16.000 762.600 V 774.400 C 16.000 774.500 16.100 774.400 16.000 774.400 H 10.100 C 10.045 774.400 10.000 774.445 10.000 774.500 V 786.500 C 10.000 786.555 10.045 786.600 10.100 786.600 H 16.100 Z"
       stroke="rgb(0,0,0)"
       stroke-width="0.20"
       id="path11"
       style="stroke-width:0.02;stroke-dasharray:none" />
  </g>
  <g
     id="p-2"
     style="fill:none;stroke-linecap:round;stroke-linejoin:round;stroke:#000000;stroke-width:0.02;stroke-dasharray:none">
    <path
       d="M 44.100 477.200 H 38.200 C 38.100 477.200 38.200 477.300 38.200 477.200 V 471.400 C 38.200 471.300 38.100 471.400 38.200 471.400 H 50.000 C 50.100 471.400 50.000 471.300 50.000 471.400 V 477.200 C 50.000 477.300 50.100 477.200 50.000 477.200 H 44.100 Z"
       stroke="rgb(0,0,255)"
       stroke-width="0.20"
       id="path12"
       style="stroke:#000000;fill:none;stroke-width:0.02;stroke-dasharray:none" />
    <path
       d="M 68.100 477.200 H 62.200 C 62.100 477.200 62.200 477.300 62.200 477.200 V 471.400 C 62.200 471.300 62.100 471.400 62.200 471.400 H 74.000 C 74.100 471.400 74.000 471.300 74.000 471.400 V 477.200 C 74.000 477.300 74.100 477.200 74.000 477.200 H 68.100 Z"
       stroke="rgb(0,0,255)"
       stroke-width="0.20"
       id="path13"
       style="stroke:#000000;fill:none;stroke-width:0.02;stroke-dasharray:none" />
    <path
       d="M 92.100 477.200 H 86.200 C 86.100 477.200 86.200 477.300 86.200 477.200 V 471.400 C 86.200 471.300 86.100 471.400 86.200 471.400 H 98.000 C 98.100 471.400 98.000 471.300 98.000 471.400 V 477.200 C 98.000 477.300 98.100 477.200 98.000 477.200 H 92.100 Z"
       stroke="rgb(0,0,255)"
       stroke-width="0.20"
       id="path14"
       style="stroke:#000000;fill:none;stroke-width:0.02;stroke-dasharray:none" />
    <path
       d="M 116.100 477.200 H 110.200 C 110.100 477.200 110.200 477.300 110.200 477.200 V 471.400 C 110.200 471.300 110.100 471.400 110.200 471.400 H 122.000 C 122.100 471.400 122.000 471.300 122.000 471.400 V 477.200 C 122.000 477.300 122.100 477.200 122.000 477.200 H 116.100 Z"
       stroke="rgb(0,0,255)"
       stroke-width="0.20"
       id="path15"
       style="stroke:#000000;fill:none;stroke-width:0.02;stroke-dasharray:none" />
    <path
       d="M 140.100 477.200 H 134.200 C 134.100 477.200 134.200 477.300 134.200 477.200 V 471.400 C 134.200 471.300 134.100 471.400 134.200 471.400 H 146.000 C 146.100 471.400 146.000 471.300 146.000 471.400 V 477.200 C 146.000 477.300 146.100 477.200 146.000 477.200 H 140.100 Z"
       stroke="rgb(0,0,255)"
       stroke-width="0.20"
       id="path16"
       style="stroke:#000000;fill:none;stroke-width:0.02;stroke-dasharray:none" />
    <path
       d="M 164.100 477.200 H 158.200 C 158.100 477.200 158.200 477.300 158.200 477.200 V 471.400 C 158.200 471.300 158.100 471.400 158.200 471.400 H 170.000 C 170.100 471.400 170.000 471.300 170.000 471.400 V 477.200 C 170.000 477.300 170.100 477.200 170.000 477.200 H 164.100 Z"
       stroke="rgb(0,0,255)"
       stroke-width="0.20"
       id="path17"
       style="stroke:#000000;fill:none;stroke-width:0.02;stroke-dasharray:none" />
    <path
       d="M 188.100 477.200 H 182.200 C 182.100 477.200 182.200 477.300 182.200 477.200 V 471.400 C 182.200 471.300 182.100 471.400 182.200 471.400 H 194.000 C 194.100 471.400 194.000 471.300 194.000 471.400 V 477.200 C 194.000 477.300 194.100 477.200 194.000 477.200 H 188.100 Z"
       stroke="rgb(0,0,255)"
       stroke-width="0.20"
       id="path18"
       style="stroke:#000000;fill:none;stroke-width:0.02;stroke-dasharray:none" />
    <path
       d="M 212.100 477.200 H 206.200 C 206.100 477.200 206.200 477.300 206.200 477.200 V 471.400 C 206.200 471.300 206.100 471.400 206.200 471.400 H 218.000 C 218.100 471.400 218.000 471.300 218.000 471.400 V 477.200 C 218.000 477.300 218.100 477.200 218.000 477.200 H 212.100 Z"
       stroke="rgb(0,0,255)"
       stroke-width="0.20"
       id="path19"
       style="stroke:#000000;fill:none;stroke-width:0.02;stroke-dasharray:none" />
    <path
       d="M 236.100 477.200 H 230.200 C 230.100 477.200 230.200 477.300 230.200 477.200 V 471.400 C 230.200 471.300 230.100 471.400 230.200 471.400 H 242.000 C 242.100 471.400 242.000 471.300 242.000 471.400 V 477.200 C 242.000 477.300 242.100 477.200 242.000 477.200 H 236.100 Z"
       stroke="rgb(0,0,255)"
       stroke-width="0.20"
       id="path20"
       style="stroke:#000000;fill:none;stroke-width:0.02;stroke-dasharray:none" />
    <path
       d="M 141.29271,329.26691 H 32.053584 c -1.851509,0 0,1.87015 0,0 V 220.80544 c 0,-1.87029 -1.851509,0 0,0 H 250.53175 c 1.85151,0 0,-1.87029 0,0 v 108.46147 c 0,1.87015 1.85151,0 0,0 z"
       stroke="#0000ff"
       stroke-width="3.78846"
       id="path16-0"
       style="fill:none;stroke:#000000;stroke-width:0.020092;stroke-linecap:round;stroke-linejoin:round;stroke-dasharray:none;paint-order:fill markers stroke" />
    <path
       d="M 16.100 483.400 H 264.100 H 270.100 C 270.155 483.400 270.200 483.355 270.200 483.300 V 471.300 C 270.200 471.245 270.155 471.200 270.100 471.200 H 264.200 C 264.100 471.200 264.200 471.300 264.200 471.200 V 459.400 C 264.200 459.300 264.100 459.400 264.200 459.400 H 270.100 C 270.155 459.400 270.200 459.355 270.200 459.300 V 447.300 C 270.200 447.245 270.155 447.200 270.100 447.200 H 264.200 C 264.100 447.200 264.200 447.300 264.200 447.200 V 435.400 C 264.200 435.300 264.100 435.400 264.200 435.400 H 270.100 C 270.155 435.400 270.200 435.355 270.200 435.300 V 423.300 C 270.200 423.245 270.155 423.200 270.100 423.200 H 264.200 C 264.100 423.200 264.200 423.300 264.200 423.200 V 411.400 C 264.200 411.300 264.100 411.400 264.200 411.400 H 270.100 C 270.155 411.400 270.200 411.355 270.200 411.300 V 399.300 C 270.200 399.245 270.155 399.200 270.100 399.200 H 264.200 C 264.100 399.200 264.200 399.300 264.200 399.200 V 387.400 C 264.200 387.300 264.100 387.400 264.200 387.400 H 270.100 C 270.155 387.400 270.200 387.355 270.200 387.300 V 375.300 C 270.200 375.245 270.155 375.200 270.100 375.200 H 264.200 C 264.100 375.200 264.200 375.300 264.200 375.200 V 363.400 C 264.200 363.300 264.100 363.400 264.200 363.400 H 270.100 C 270.155 363.400 270.200 363.355 270.200 363.300 V 351.300 C 270.200 351.245 270.155 351.200 270.100 351.200 H 264.200 C 264.100 351.200 264.200 351.300 264.200 351.200 V 339.400 C 264.200 339.300 264.100 339.400 264.200 339.400 H 270.100 C 270.155 339.400 270.200 339.355 270.200 339.300 V 327.300 C 270.200 327.245 270.155 327.200 270.100 327.200 H 264.200 C 264.100 327.200 264.200 327.300 264.200 327.200 V 315.400 C 264.200 315.300 264.100 315.400 264.200 315.400 H 270.100 C 270.155 315.400 270.200 315.355 270.200 315.300 V 303.300 C 270.200 303.245 270.155 303.200 270.100 303.200 H 264.200 C 264.100 303.200 264.200 303.300 264.200 303.200 V 291.400 C 264.200 291.300 264.100 291.400 264.200 291.400 H 270.100 C 270.155 291.400 270.200 291.355 270.200 291.300 V 279.300 C 270.200 279.245 270.155 279.200 270.100 279.200 H 264.200 C 264.100 279.200 264.200 279.300 264.200 279.200 V 267.400 C 264.200 267.300 264.100 267.400 264.200 267.400 H 270.100 C 270.155 267.400 270.200 267.355 270.200 267.300 V 255.300 C 270.200 255.245 270.155 255.200 270.100 255.200 H 264.200 C 264.100 255.200 264.200 255.300 264.200 255.200 V 243.400 C 264.200 243.300 264.100 243.400 264.200 243.400 H 270.100 C 270.155 243.400 270.200 243.355 270.200 243.300 V 231.300 C 270.200 231.245 270.155 231.200 270.100 231.200 H 264.200 C 264.100 231.200 264.200 231.300 264.200 231.200 V 219.400 C 264.200 219.300 264.100 219.400 264.200 219.400 H 270.100 C 270.155 219.400 270.200 219.355 270.200 219.300 V 207.300 C 270.200 207.245 270.155 207.200 270.100 207.200 H 264.200 C 264.100 207.200 264.200 207.300 264.200 207.200 V 195.400 C 264.200 195.300 264.100 195.400 264.200 195.400 H 270.100 C 270.155 195.400 270.200 195.355 270.200 195.300 V 183.300 C 270.200 183.245 270.155 183.200 270.100 183.200 H 264.100 H 16.100 H 10.100 C 10.045 183.200 10.000 183.245 10.000 183.300 V 195.300 C 10.000 195.355 10.045 195.400 10.100 195.400 H 16.000 C 16.100 195.400 16.000 195.300 16.000 195.400 V 207.200 C 16.000 207.300 16.100 207.200 16.000 207.200 H 10.100 C 10.045 207.200 10.000 207.245 10.000 207.300 V 219.300 C 10.000 219.355 10.045 219.400 10.100 219.400 H 16.000 C 16.100 219.400 16.000 219.300 16.000 219.400 V 231.200 C 16.000 231.300 16.100 231.200 16.000 231.200 H 10.100 C 10.045 231.200 10.000 231.245 10.000 231.300 V 243.300 C 10.000 243.355 10.045 243.400 10.100 243.400 H 16.000 C 16.100 243.400 16.000 243.300 16.000 243.400 V 255.200 C 16.000 255.300 16.100 255.200 16.000 255.200 H 10.100 C 10.045 255.200 10.000 255.245 10.000 255.300 V 267.300 C 10.000 267.355 10.045 267.400 10.100 267.400 H 16.000 C 16.100 267.400 16.000 267.300 16.000 267.400 V 279.200 C 16.000 279.300 16.100 279.200 16.000 279.200 H 10.100 C 10.045 279.200 10.000 279.245 10.000 279.300 V 291.300 C 10.000 291.355 10.045 291.400 10.100 291.400 H 16.000 C 16.100 291.400 16.000 291.300 16.000 291.400 V 303.200 C 16.000 303.300 16.100 303.200 16.000 303.200 H 10.100 C 10.045 303.200 10.000 303.245 10.000 303.300 V 315.300 C 10.000 315.355 10.045 315.400 10.100 315.400 H 16.000 C 16.100 315.400 16.000 315.300 16.000 315.400 V 327.200 C 16.000 327.300 16.100 327.200 16.000 327.200 H 10.100 C 10.045 327.200 10.000 327.245 10.000 327.300 V 339.300 C 10.000 339.355 10.045 339.400 10.100 339.400 H 16.000 C 16.100 339.400 16.000 339.300 16.000 339.400 V 351.200 C 16.000 351.300 16.100 351.200 16.000 351.200 H 10.100 C 10.045 351.200 10.000 351.245 10.000 351.300 V 363.300 C 10.000 363.355 10.045 363.400 10.100 363.400 H 16.000 C 16.100 363.400 16.000 363.300 16.000 363.400 V 375.200 C 16.000 375.300 16.100 375.200 16.000 375.200 H 10.100 C 10.045 375.200 10.000 375.245 10.000 375.300 V 387.300 C 10.000 387.355 10.045 387.400 10.100 387.400 H 16.000 C 16.100 387.400 16.000 387.300 16.000 387.400 V 399.200 C 16.000 399.300 16.100 399.200 16.000 399.200 H 10.100 C 10.045 399.200 10.000 399.245 10.000 399.300 V 411.300 C 10.000 411.355 10.045 411.400 10.100 411.400 H 16.000 C 16.100 411.400 16.000 411.300 16.000 411.400 V 423.200 C 16.000 423.300 16.100 423.200 16.000 423.200 H 10.100 C 10.045 423.200 10.000 423.245 10.000 423.300 V 435.300 C 10.000 435.355 10.045 435.400 10.100 435.400 H 16.000 C 16.100 435.400 16.000 435.300 16.000 435.400 V 447.200 C 16.000 447.300 16.100 447.200 16.000 447.200 H 10.100 C 10.045 447.200 10.000 447.245 10.000 447.300 V 459.300 C 10.000 459.355 10.045 459.400 10.100 459.400 H 16.000 C 16.100 459.400 16.000 459.300 16.000 459.400 V 471.200 C 16.000 471.300 16.100 471.200 16.000 471.200 H 10.100 C 10.045 471.200 10.000 471.245 10.000 471.300 V 483.300 C 10.000 483.355 10.045 483.400 10.100 483.400 H 16.100 Z"
       stroke="rgb(0,0,0)"
       stroke-width="0.20"
       id="path21"
       style="fill:none;stroke:#000000;stroke-width:0.02;stroke-dasharray:none" />
  </g>
  <g
     id="p-3"
     style="fill:none;stroke-linecap:round;stroke-linejoin:round;stroke-width:0.02;stroke-dasharray:none">
    <path
       d="M 16.100 174.200 H 38.000 C 38.100 174.200 38.000 174.100 38.000 174.200 V 180.100 C 38.000 180.155 38.045 180.200 38.100 180.200 H 50.100 C 50.155 180.200 50.200 180.155 50.200 180.100 V 174.200 C 50.200 174.100 50.100 174.200 50.200 174.200 H 62.000 C 62.100 174.200 62.000 174.100 62.000 174.200 V 180.100 C 62.000 180.155 62.045 180.200 62.100 180.200 H 74.100 C 74.155 180.200 74.200 180.155 74.200 180.100 V 174.200 C 74.200 174.100 74.100 174.200 74.200 174.200 H 86.000 C 86.100 174.200 86.000 174.100 86.000 174.200 V 180.100 C 86.000 180.155 86.045 180.200 86.100 180.200 H 98.100 C 98.155 180.200 98.200 180.155 98.200 180.100 V 174.200 C 98.200 174.100 98.100 174.200 98.200 174.200 H 110.000 C 110.100 174.200 110.000 174.100 110.000 174.200 V 180.100 C 110.000 180.155 110.045 180.200 110.100 180.200 H 122.100 C 122.155 180.200 122.200 180.155 122.200 180.100 V 174.200 C 122.200 174.100 122.100 174.200 122.200 174.200 H 134.000 C 134.100 174.200 134.000 174.100 134.000 174.200 V 180.100 C 134.000 180.155 134.045 180.200 134.100 180.200 H 146.100 C 146.155 180.200 146.200 180.155 146.200 180.100 V 174.200 C 146.200 174.100 146.100 174.200 146.200 174.200 H 158.000 C 158.100 174.200 158.000 174.100 158.000 174.200 V 180.100 C 158.000 180.155 158.045 180.200 158.100 180.200 H 170.100 C 170.155 180.200 170.200 180.155 170.200 180.100 V 174.200 C 170.200 174.100 170.100 174.200 170.200 174.200 H 182.000 C 182.100 174.200 182.000 174.100 182.000 174.200 V 180.100 C 182.000 180.155 182.045 180.200 182.100 180.200 H 194.100 C 194.155 180.200 194.200 180.155 194.200 180.100 V 174.200 C 194.200 174.100 194.100 174.200 194.200 174.200 H 206.000 C 206.100 174.200 206.000 174.100 206.000 174.200 V 180.100 C 206.000 180.155 206.045 180.200 206.100 180.200 H 218.100 C 218.155 180.200 218.200 180.155 218.200 180.100 V 174.200 C 218.200 174.100 218.100 174.200 218.200 174.200 H 230.000 C 230.100 174.200 230.000 174.100 230.000 174.200 V 180.100 C 230.000 180.155 230.045 180.200 230.100 180.200 H 242.100 C 242.155 180.200 242.200 180.155 242.200 180.100 V 174.200 C 242.200 174.100 242.100 174.200 242.200 174.200 H 264.100 C 264.155 174.200 264.200 174.155 264.200 174.100 V 161.200 C 264.200 161.100 264.100 161.200 264.200 161.200 H 270.100 C 270.155 161.200 270.200 161.155 270.200 161.100 V 149.100 C 270.200 149.045 270.155 149.000 270.100 149.000 H 264.200 C 264.100 149.000 264.200 149.100 264.200 149.000 V 137.200 C 264.200 137.100 264.100 137.200 264.200 137.200 H 270.100 C 270.155 137.200 270.200 137.155 270.200 137.100 V 125.100 C 270.200 125.045 270.155 125.000 270.100 125.000 H 264.200 C 264.100 125.000 264.200 125.100 264.200 125.000 V 113.200 C 264.200 113.100 264.100 113.200 264.200 113.200 H 270.100 C 270.155 113.200 270.200 113.155 270.200 113.100 V 101.100 C 270.200 101.045 270.155 101.000 270.100 101.000 H 264.200 C 264.100 101.000 264.200 101.100 264.200 101.000 V 89.200 C 264.200 89.100 264.100 89.200 264.200 89.200 H 270.100 C 270.155 89.200 270.200 89.155 270.200 89.100 V 77.100 C 270.200 77.045 270.155 77.000 270.100 77.000 H 264.200 C 264.100 77.000 264.200 77.100 264.200 77.000 V 65.200 C 264.200 65.100 264.100 65.200 264.200 65.200 H 270.100 C 270.155 65.200 270.200 65.155 270.200 65.100 V 53.100 C 270.200 53.045 270.155 53.000 270.100 53.000 H 264.200 C 264.100 53.000 264.200 53.100 264.200 53.000 V 41.200 C 264.200 41.100 264.100 41.200 264.200 41.200 H 270.100 C 270.155 41.200 270.200 41.155 270.200 41.100 V 29.100 C 270.200 29.045 270.155 29.000 270.100 29.000 H 264.200 C 264.100 29.000 264.200 29.100 264.200 29.000 V 16.100 C 264.200 16.045 264.155 16.000 264.100 16.000 H 242.200 C 242.100 16.000 242.200 16.100 242.200 16.000 V 10.100 C 242.200 10.045 242.155 10.000 242.100 10.000 H 230.100 C 230.045 10.000 230.000 10.045 230.000 10.100 V 16.000 C 230.000 16.100 230.100 16.000 230.000 16.000 H 218.200 C 218.100 16.000 218.200 16.100 218.200 16.000 V 10.100 C 218.200 10.045 218.155 10.000 218.100 10.000 H 206.100 C 206.045 10.000 206.000 10.045 206.000 10.100 V 16.000 C 206.000 16.100 206.100 16.000 206.000 16.000 H 194.200 C 194.100 16.000 194.200 16.100 194.200 16.000 V 10.100 C 194.200 10.045 194.155 10.000 194.100 10.000 H 182.100 C 182.045 10.000 182.000 10.045 182.000 10.100 V 16.000 C 182.000 16.100 182.100 16.000 182.000 16.000 H 170.200 C 170.100 16.000 170.200 16.100 170.200 16.000 V 10.100 C 170.200 10.045 170.155 10.000 170.100 10.000 H 158.100 C 158.045 10.000 158.000 10.045 158.000 10.100 V 16.000 C 158.000 16.100 158.100 16.000 158.000 16.000 H 146.200 C 146.100 16.000 146.200 16.100 146.200 16.000 V 10.100 C 146.200 10.045 146.155 10.000 146.100 10.000 H 134.100 C 134.045 10.000 134.000 10.045 134.000 10.100 V 16.000 C 134.000 16.100 134.100 16.000 134.000 16.000 H 122.200 C 122.100 16.000 122.200 16.100 122.200 16.000 V 10.100 C 122.200 10.045 122.155 10.000 122.100 10.000 H 110.100 C 110.045 10.000 110.000 10.045 110.000 10.100 V 16.000 C 110.000 16.100 110.100 16.000 110.000 16.000 H 98.200 C 98.100 16.000 98.200 16.100 98.200 16.000 V 10.100 C 98.200 10.045 98.155 10.000 98.100 10.000 H 86.100 C 86.045 10.000 86.000 10.045 86.000 10.100 V 16.000 C 86.000 16.100 86.100 16.000 86.000 16.000 H 74.200 C 74.100 16.000 74.200 16.100 74.200 16.000 V 10.100 C 74.200 10.045 74.155 10.000 74.100 10.000 H 62.100 C 62.045 10.000 62.000 10.045 62.000 10.100 V 16.000 C 62.000 16.100 62.100 16.000 62.000 16.000 H 50.200 C 50.100 16.000 50.200 16.100 50.200 16.000 V 10.100 C 50.200 10.045 50.155 10.000 50.100 10.000 H 38.100 C 38.045 10.000 38.000 10.045 38.000 10.100 V 16.000 C 38.000 16.100 38.100 16.000 38.000 16.000 H 16.100 C 16.045 16.000 16.000 16.045 16.000 16.100 V 29.000 C 16.000 29.100 16.100 29.000 16.000 29.000 H 10.100 C 10.045 29.000 10.000 29.045 10.000 29.100 V 41.100 C 10.000 41.155 10.045 41.200 10.100 41.200 H 16.000 C 16.100 41.200 16.000 41.100 16.000 41.200 V 53.000 C 16.000 53.100 16.100 53.000 16.000 53.000 H 10.100 C 10.045 53.000 10.000 53.045 10.000 53.100 V 65.100 C 10.000 65.155 10.045 65.200 10.100 65.200 H 16.000 C 16.100 65.200 16.000 65.100 16.000 65.200 V 77.000 C 16.000 77.100 16.100 77.000 16.000 77.000 H 10.100 C 10.045 77.000 10.000 77.045 10.000 77.100 V 89.100 C 10.000 89.155 10.045 89.200 10.100 89.200 H 16.000 C 16.100 89.200 16.000 89.100 16.000 89.200 V 101.000 C 16.000 101.100 16.100 101.000 16.000 101.000 H 10.100 C 10.045 101.000 10.000 101.045 10.000 101.100 V 113.100 C 10.000 113.155 10.045 113.200 10.100 113.200 H 16.000 C 16.100 113.200 16.000 113.100 16.000 113.200 V 125.000 C 16.000 125.100 16.100 125.000 16.000 125.000 H 10.100 C 10.045 125.000 10.000 125.045 10.000 125.100 V 137.100 C 10.000 137.155 10.045 137.200 10.100 137.200 H 16.000 C 16.100 137.200 16.000 137.100 16.000 137.200 V 149.000 C 16.000 149.100 16.100 149.000 16.000 149.000 H 10.100 C 10.045 149.000 10.000 149.045 10.000 149.100 V 161.100 C 10.000 161.155 10.045 161.200 10.100 161.200 H 16.000 C 16.100 161.200 16.000 161.100 16.000 161.200 V 174.100 C 16.000 174.155 16.045 174.200 16.100 174.200 Z"
       stroke="rgb(0,0,0)"
       stroke-width="0.20"
       id="path22"
       style="stroke-width:0.02;stroke-dasharray:none" />
  </g>
  <g
     id="p-4"
     style="fill:none;stroke-linecap:round;stroke-linejoin:round;stroke-width:0.02;stroke-dasharray:none">
    <path
       d="M 298.300 780.400 H 292.400 C 292.300 780.400 292.400 780.500 292.400 780.400 V 774.600 C 292.400 774.500 292.300 774.600 292.400 774.600 H 304.200 C 304.300 774.600 304.200 774.500 304.200 774.600 V 780.400 C 304.200 780.500 304.300 780.400 304.200 780.400 H 298.300 Z"
       stroke="rgb(0,0,255)"
       stroke-width="0.20"
       id="path23"
       style="stroke-width:0.02;stroke-dasharray:none" />
    <path
       d="M 322.300 780.400 H 316.400 C 316.300 780.400 316.400 780.500 316.400 780.400 V 774.600 C 316.400 774.500 316.300 774.600 316.400 774.600 H 328.200 C 328.300 774.600 328.200 774.500 328.200 774.600 V 780.400 C 328.200 780.500 328.300 780.400 328.200 780.400 H 322.300 Z"
       stroke="rgb(0,0,255)"
       stroke-width="0.20"
       id="path24"
       style="stroke-width:0.02;stroke-dasharray:none" />
    <path
       d="M 346.300 780.400 H 340.400 C 340.300 780.400 340.400 780.500 340.400 780.400 V 774.600 C 340.400 774.500 340.300 774.600 340.400 774.600 H 352.200 C 352.300 774.600 352.200 774.500 352.200 774.600 V 780.400 C 352.200 780.500 352.300 780.400 352.200 780.400 H 346.300 Z"
       stroke="rgb(0,0,255)"
       stroke-width="0.20"
       id="path25"
       style="stroke-width:0.02;stroke-dasharray:none" />
    <path
       d="M 370.300 780.400 H 364.400 C 364.300 780.400 364.400 780.500 364.400 780.400 V 774.600 C 364.400 774.500 364.300 774.600 364.400 774.600 H 376.200 C 376.300 774.600 376.200 774.500 376.200 774.600 V 780.400 C 376.200 780.500 376.300 780.400 376.200 780.400 H 370.300 Z"
       stroke="rgb(0,0,255)"
       stroke-width="0.20"
       id="path26"
       style="stroke-width:0.02;stroke-dasharray:none" />
    <path
       d="M 394.300 780.400 H 388.400 C 388.300 780.400 388.400 780.500 388.400 780.400 V 774.600 C 388.400 774.500 388.300 774.600 388.400 774.600 H 400.200 C 400.300 774.600 400.200 774.500 400.200 774.600 V 780.400 C 400.200 780.500 400.300 780.400 400.200 780.400 H 394.300 Z"
       stroke="rgb(0,0,255)"
       stroke-width="0.20"
       id="path27"
       style="stroke-width:0.02;stroke-dasharray:none" />
    <path
       d="M 418.300 780.400 H 412.400 C 412.300 780.400 412.400 780.500 412.400 780.400 V 774.600 C 412.400 774.500 412.300 774.600 412.400 774.600 H 424.200 C 424.300 774.600 424.200 774.500 424.200 774.600 V 780.400 C 424.200 780.500 424.300 780.400 424.200 780.400 H 418.300 Z"
       stroke="rgb(0,0,255)"
       stroke-width="0.20"
       id="path28"
       style="stroke-width:0.02;stroke-dasharray:none" />
    <path
       d="M 279.300 786.600 H 437.300 C 437.355 786.600 437.400 786.555 437.400 786.500 V 774.600 C 437.400 774.500 437.300 774.600 437.400 774.600 H 443.300 C 443.355 774.600 443.400 774.555 443.400 774.500 V 762.500 C 443.400 762.445 443.355 762.400 443.300 762.400 H 437.400 C 437.300 762.400 437.400 762.500 437.400 762.400 V 750.600 C 437.400 750.500 437.300 750.600 437.400 750.600 H 443.300 C 443.355 750.600 443.400 750.555 443.400 750.500 V 738.500 C 443.400 738.445 443.355 738.400 443.300 738.400 H 437.400 C 437.300 738.400 437.400 738.500 437.400 738.400 V 726.600 C 437.400 726.500 437.300 726.600 437.400 726.600 H 443.300 C 443.355 726.600 443.400 726.555 443.400 726.500 V 714.500 C 443.400 714.445 443.355 714.400 443.300 714.400 H 437.400 C 437.300 714.400 437.400 714.500 437.400 714.400 V 702.600 C 437.400 702.500 437.300 702.600 437.400 702.600 H 443.300 C 443.355 702.600 443.400 702.555 443.400 702.500 V 690.500 C 443.400 690.445 443.355 690.400 443.300 690.400 H 437.400 C 437.300 690.400 437.400 690.500 437.400 690.400 V 678.600 C 437.400 678.500 437.300 678.600 437.400 678.600 H 443.300 C 443.355 678.600 443.400 678.555 443.400 678.500 V 666.500 C 443.400 666.445 443.355 666.400 443.300 666.400 H 437.400 C 437.300 666.400 437.400 666.500 437.400 666.400 V 654.600 C 437.400 654.500 437.300 654.600 437.400 654.600 H 443.300 C 443.355 654.600 443.400 654.555 443.400 654.500 V 642.500 C 443.400 642.445 443.355 642.400 443.300 642.400 H 437.400 C 437.300 642.400 437.400 642.500 437.400 642.400 V 630.600 C 437.400 630.500 437.300 630.600 437.400 630.600 H 443.300 C 443.355 630.600 443.400 630.555 443.400 630.500 V 618.500 C 443.400 618.445 443.355 618.400 443.300 618.400 H 437.400 C 437.300 618.400 437.400 618.500 437.400 618.400 V 606.600 C 437.400 606.500 437.300 606.600 437.400 606.600 H 443.300 C 443.355 606.600 443.400 606.555 443.400 606.500 V 594.500 C 443.400 594.445 443.355 594.400 443.300 594.400 H 437.400 C 437.300 594.400 437.400 594.500 437.400 594.400 V 582.600 C 437.400 582.500 437.300 582.600 437.400 582.600 H 443.300 C 443.355 582.600 443.400 582.555 443.400 582.500 V 570.500 C 443.400 570.445 443.355 570.400 443.300 570.400 H 437.400 C 437.300 570.400 437.400 570.500 437.400 570.400 V 558.600 C 437.400 558.500 437.300 558.600 437.400 558.600 H 443.300 C 443.355 558.600 443.400 558.555 443.400 558.500 V 546.500 C 443.400 546.445 443.355 546.400 443.300 546.400 H 437.400 C 437.300 546.400 437.400 546.500 437.400 546.400 V 534.600 C 437.400 534.500 437.300 534.600 437.400 534.600 H 443.300 C 443.355 534.600 443.400 534.555 443.400 534.500 V 522.500 C 443.400 522.445 443.355 522.400 443.300 522.400 H 437.400 C 437.300 522.400 437.400 522.500 437.400 522.400 V 510.600 C 437.400 510.500 437.300 510.600 437.400 510.600 H 443.300 C 443.355 510.600 443.400 510.555 443.400 510.500 V 498.500 C 443.400 498.445 443.355 498.400 443.300 498.400 H 437.400 C 437.300 498.400 437.400 498.500 437.400 498.400 V 486.500 C 437.400 486.445 437.355 486.400 437.300 486.400 H 279.300 C 279.245 486.400 279.200 486.445 279.200 486.500 V 498.400 C 279.200 498.500 279.300 498.400 279.200 498.400 H 273.300 C 273.245 498.400 273.200 498.445 273.200 498.500 V 510.500 C 273.200 510.555 273.245 510.600 273.300 510.600 H 279.200 C 279.300 510.600 279.200 510.500 279.200 510.600 V 522.400 C 279.200 522.500 279.300 522.400 279.200 522.400 H 273.300 C 273.245 522.400 273.200 522.445 273.200 522.500 V 534.500 C 273.200 534.555 273.245 534.600 273.300 534.600 H 279.200 C 279.300 534.600 279.200 534.500 279.200 534.600 V 546.400 C 279.200 546.500 279.300 546.400 279.200 546.400 H 273.300 C 273.245 546.400 273.200 546.445 273.200 546.500 V 558.500 C 273.200 558.555 273.245 558.600 273.300 558.600 H 279.200 C 279.300 558.600 279.200 558.500 279.200 558.600 V 570.400 C 279.200 570.500 279.300 570.400 279.200 570.400 H 273.300 C 273.245 570.400 273.200 570.445 273.200 570.500 V 582.500 C 273.200 582.555 273.245 582.600 273.300 582.600 H 279.200 C 279.300 582.600 279.200 582.500 279.200 582.600 V 594.400 C 279.200 594.500 279.300 594.400 279.200 594.400 H 273.300 C 273.245 594.400 273.200 594.445 273.200 594.500 V 606.500 C 273.200 606.555 273.245 606.600 273.300 606.600 H 279.200 C 279.300 606.600 279.200 606.500 279.200 606.600 V 618.400 C 279.200 618.500 279.300 618.400 279.200 618.400 H 273.300 C 273.245 618.400 273.200 618.445 273.200 618.500 V 630.500 C 273.200 630.555 273.245 630.600 273.300 630.600 H 279.200 C 279.300 630.600 279.200 630.500 279.200 630.600 V 642.400 C 279.200 642.500 279.300 642.400 279.200 642.400 H 273.300 C 273.245 642.400 273.200 642.445 273.200 642.500 V 654.500 C 273.200 654.555 273.245 654.600 273.300 654.600 H 279.200 C 279.300 654.600 279.200 654.500 279.200 654.600 V 666.400 C 279.200 666.500 279.300 666.400 279.200 666.400 H 273.300 C 273.245 666.400 273.200 666.445 273.200 666.500 V 678.500 C 273.200 678.555 273.245 678.600 273.300 678.600 H 279.200 C 279.300 678.600 279.200 678.500 279.200 678.600 V 690.400 C 279.200 690.500 279.300 690.400 279.200 690.400 H 273.300 C 273.245 690.400 273.200 690.445 273.200 690.500 V 702.500 C 273.200 702.555 273.245 702.600 273.300 702.600 H 279.200 C 279.300 702.600 279.200 702.500 279.200 702.600 V 714.400 C 279.200 714.500 279.300 714.400 279.200 714.400 H 273.300 C 273.245 714.400 273.200 714.445 273.200 714.500 V 726.500 C 273.200 726.555 273.245 726.600 273.300 726.600 H 279.200 C 279.300 726.600 279.200 726.500 279.200 726.600 V 738.400 C 279.200 738.500 279.300 738.400 279.200 738.400 H 273.300 C 273.245 738.400 273.200 738.445 273.200 738.500 V 750.500 C 273.200 750.555 273.245 750.600 273.300 750.600 H 279.200 C 279.300 750.600 279.200 750.500 279.200 750.600 V 762.400 C 279.200 762.500 279.300 762.400 279.200 762.400 H 273.300 C 273.245 762.400 273.200 762.445 273.200 762.500 V 774.500 C 273.200 774.555 273.245 774.600 273.300 774.600 H 279.200 C 279.300 774.600 279.200 774.500 279.200 774.600 V 786.500 C 279.200 786.555 279.245 786.600 279.300 786.600 Z"
       stroke="rgb(0,0,0)"
       stroke-width="0.20"
       id="path29"
       style="stroke-width:0.02;stroke-dasharray:none" />
  </g>
  <g
     id="p-5"
     style="fill:none;stroke-linecap:round;stroke-linejoin:round;stroke-width:0.02;stroke-dasharray:none">
    <path
       d="M 298.300 477.200 H 292.400 C 292.300 477.200 292.400 477.300 292.400 477.200 V 471.400 C 292.400 471.300 292.300 471.400 292.400 471.400 H 304.200 C 304.300 471.400 304.200 471.300 304.200 471.400 V 477.200 C 304.200 477.300 304.300 477.200 304.200 477.200 H 298.300 Z"
       stroke="rgb(0,0,255)"
       stroke-width="0.20"
       id="path30"
       style="stroke-width:0.02;stroke-dasharray:none" />
    <path
       d="M 322.300 477.200 H 316.400 C 316.300 477.200 316.400 477.300 316.400 477.200 V 471.400 C 316.400 471.300 316.300 471.400 316.400 471.400 H 328.200 C 328.300 471.400 328.200 471.300 328.200 471.400 V 477.200 C 328.200 477.300 328.300 477.200 328.200 477.200 H 322.300 Z"
       stroke="rgb(0,0,255)"
       stroke-width="0.20"
       id="path31"
       style="stroke-width:0.02;stroke-dasharray:none" />
    <path
       d="M 346.300 477.200 H 340.400 C 340.300 477.200 340.400 477.300 340.400 477.200 V 471.400 C 340.400 471.300 340.300 471.400 340.400 471.400 H 352.200 C 352.300 471.400 352.200 471.300 352.200 471.400 V 477.200 C 352.200 477.300 352.300 477.200 352.200 477.200 H 346.300 Z"
       stroke="rgb(0,0,255)"
       stroke-width="0.20"
       id="path32"
       style="stroke-width:0.02;stroke-dasharray:none" />
    <path
       d="M 370.300 477.200 H 364.400 C 364.300 477.200 364.400 477.300 364.400 477.200 V 471.400 C 364.400 471.300 364.300 471.400 364.400 471.400 H 376.200 C 376.300 471.400 376.200 471.300 376.200 471.400 V 477.200 C 376.200 477.300 376.300 477.200 376.200 477.200 H 370.300 Z"
       stroke="rgb(0,0,255)"
       stroke-width="0.20"
       id="path33"
       style="stroke-width:0.02;stroke-dasharray:none" />
    <path
       d="M 394.300 477.200 H 388.400 C 388.300 477.200 388.400 477.300 388.400 477.200 V 471.400 C 388.400 471.300 388.300 471.400 388.400 471.400 H 400.200 C 400.300 471.400 400.200 471.300 400.200 471.400 V 477.200 C 400.200 477.300 400.300 477.200 400.200 477.200 H 394.300 Z"
       stroke="rgb(0,0,255)"
       stroke-width="0.20"
       id="path34"
       style="stroke-width:0.02;stroke-dasharray:none" />
    <path
       d="M 418.300 477.200 H 412.400 C 412.300 477.200 412.400 477.300 412.400 477.200 V 471.400 C 412.400 471.300 412.300 471.400 412.400 471.400 H 424.200 C 424.300 471.400 424.200 471.300 424.200 471.400 V 477.200 C 424.200 477.300 424.300 477.200 424.200 477.200 H 418.300 Z"
       stroke="rgb(0,0,255)"
       stroke-width="0.20"
       id="path35"
       style="stroke-width:0.02;stroke-dasharray:none" />
    <path
       d="M 279.300 483.400 H 437.300 C 437.355 483.400 437.400 483.355 437.400 483.300 V 471.400 C 437.400 471.300 437.300 471.400 437.400 471.400 H 443.300 C 443.355 471.400 443.400 471.355 443.400 471.300 V 459.300 C 443.400 459.245 443.355 459.200 443.300 459.200 H 437.400 C 437.300 459.200 437.400 459.300 437.400 459.200 V 447.400 C 437.400 447.300 437.300 447.400 437.400 447.400 H 443.300 C 443.355 447.400 443.400 447.355 443.400 447.300 V 435.300 C 443.400 435.245 443.355 435.200 443.300 435.200 H 437.400 C 437.300 435.200 437.400 435.300 437.400 435.200 V 423.400 C 437.400 423.300 437.300 423.400 437.400 423.400 H 443.300 C 443.355 423.400 443.400 423.355 443.400 423.300 V 411.300 C 443.400 411.245 443.355 411.200 443.300 411.200 H 437.400 C 437.300 411.200 437.400 411.300 437.400 411.200 V 399.400 C 437.400 399.300 437.300 399.400 437.400 399.400 H 443.300 C 443.355 399.400 443.400 399.355 443.400 399.300 V 387.300 C 443.400 387.245 443.355 387.200 443.300 387.200 H 437.400 C 437.300 387.200 437.400 387.300 437.400 387.200 V 375.400 C 437.400 375.300 437.300 375.400 437.400 375.400 H 443.300 C 443.355 375.400 443.400 375.355 443.400 375.300 V 363.300 C 443.400 363.245 443.355 363.200 443.300 363.200 H 437.400 C 437.300 363.200 437.400 363.300 437.400 363.200 V 351.400 C 437.400 351.300 437.300 351.400 437.400 351.400 H 443.300 C 443.355 351.400 443.400 351.355 443.400 351.300 V 339.300 C 443.400 339.245 443.355 339.200 443.300 339.200 H 437.400 C 437.300 339.200 437.400 339.300 437.400 339.200 V 327.400 C 437.400 327.300 437.300 327.400 437.400 327.400 H 443.300 C 443.355 327.400 443.400 327.355 443.400 327.300 V 315.300 C 443.400 315.245 443.355 315.200 443.300 315.200 H 437.400 C 437.300 315.200 437.400 315.300 437.400 315.200 V 303.400 C 437.400 303.300 437.300 303.400 437.400 303.400 H 443.300 C 443.355 303.400 443.400 303.355 443.400 303.300 V 291.300 C 443.400 291.245 443.355 291.200 443.300 291.200 H 437.400 C 437.300 291.200 437.400 291.300 437.400 291.200 V 279.400 C 437.400 279.300 437.300 279.400 437.400 279.400 H 443.300 C 443.355 279.400 443.400 279.355 443.400 279.300 V 267.300 C 443.400 267.245 443.355 267.200 443.300 267.200 H 437.400 C 437.300 267.200 437.400 267.300 437.400 267.200 V 255.400 C 437.400 255.300 437.300 255.400 437.400 255.400 H 443.300 C 443.355 255.400 443.400 255.355 443.400 255.300 V 243.300 C 443.400 243.245 443.355 243.200 443.300 243.200 H 437.400 C 437.300 243.200 437.400 243.300 437.400 243.200 V 231.400 C 437.400 231.300 437.300 231.400 437.400 231.400 H 443.300 C 443.355 231.400 443.400 231.355 443.400 231.300 V 219.300 C 443.400 219.245 443.355 219.200 443.300 219.200 H 437.400 C 437.300 219.200 437.400 219.300 437.400 219.200 V 207.400 C 437.400 207.300 437.300 207.400 437.400 207.400 H 443.300 C 443.355 207.400 443.400 207.355 443.400 207.300 V 195.300 C 443.400 195.245 443.355 195.200 443.300 195.200 H 437.400 C 437.300 195.200 437.400 195.300 437.400 195.200 V 183.300 C 437.400 183.245 437.355 183.200 437.300 183.200 H 279.300 C 279.245 183.200 279.200 183.245 279.200 183.300 V 195.200 C 279.200 195.300 279.300 195.200 279.200 195.200 H 273.300 C 273.245 195.200 273.200 195.245 273.200 195.300 V 207.300 C 273.200 207.355 273.245 207.400 273.300 207.400 H 279.200 C 279.300 207.400 279.200 207.300 279.200 207.400 V 219.200 C 279.200 219.300 279.300 219.200 279.200 219.200 H 273.300 C 273.245 219.200 273.200 219.245 273.200 219.300 V 231.300 C 273.200 231.355 273.245 231.400 273.300 231.400 H 279.200 C 279.300 231.400 279.200 231.300 279.200 231.400 V 243.200 C 279.200 243.300 279.300 243.200 279.200 243.200 H 273.300 C 273.245 243.200 273.200 243.245 273.200 243.300 V 255.300 C 273.200 255.355 273.245 255.400 273.300 255.400 H 279.200 C 279.300 255.400 279.200 255.300 279.200 255.400 V 267.200 C 279.200 267.300 279.300 267.200 279.200 267.200 H 273.300 C 273.245 267.200 273.200 267.245 273.200 267.300 V 279.300 C 273.200 279.355 273.245 279.400 273.300 279.400 H 279.200 C 279.300 279.400 279.200 279.300 279.200 279.400 V 291.200 C 279.200 291.300 279.300 291.200 279.200 291.200 H 273.300 C 273.245 291.200 273.200 291.245 273.200 291.300 V 303.300 C 273.200 303.355 273.245 303.400 273.300 303.400 H 279.200 C 279.300 303.400 279.200 303.300 279.200 303.400 V 315.200 C 279.200 315.300 279.300 315.200 279.200 315.200 H 273.300 C 273.245 315.200 273.200 315.245 273.200 315.300 V 327.300 C 273.200 327.355 273.245 327.400 273.300 327.400 H 279.200 C 279.300 327.400 279.200 327.300 279.200 327.400 V 339.200 C 279.200 339.300 279.300 339.200 279.200 339.200 H 273.300 C 273.245 339.200 273.200 339.245 273.200 339.300 V 351.300 C 273.200 351.355 273.245 351.400 273.300 351.400 H 279.200 C 279.300 351.400 279.200 351.300 279.200 351.400 V 363.200 C 279.200 363.300 279.300 363.200 279.200 363.200 H 273.300 C 273.245 363.200 273.200 363.245 273.200 363.300 V 375.300 C 273.200 375.355 273.245 375.400 273.300 375.400 H 279.200 C 279.300 375.400 279.200 375.300 279.200 375.400 V 387.200 C 279.200 387.300 279.300 387.200 279.200 387.200 H 273.300 C 273.245 387.200 273.200 387.245 273.200 387.300 V 399.300 C 273.200 399.355 273.245 399.400 273.300 399.400 H 279.200 C 279.300 399.400 279.200 399.300 279.200 399.400 V 411.200 C 279.200 411.300 279.300 411.200 279.200 411.200 H 273.300 C 273.245 411.200 273.200 411.245 273.200 411.300 V 423.300 C 273.200 423.355 273.245 423.400 273.300 423.400 H 279.200 C 279.300 423.400 279.200 423.300 279.200 423.400 V 435.200 C 279.200 435.300 279.300 435.200 279.200 435.200 H 273.300 C 273.245 435.200 273.200 435.245 273.200 435.300 V 447.300 C 273.200 447.355 273.245 447.400 273.300 447.400 H 279.200 C 279.300 447.400 279.200 447.300 279.200 447.400 V 459.200 C 279.200 459.300 279.300 459.200 279.200 459.200 H 273.300 C 273.245 459.200 273.200 459.245 273.200 459.300 V 471.300 C 273.200 471.355 273.245 471.400 273.300 471.400 H 279.200 C 279.300 471.400 279.200 471.300 279.200 471.400 V 483.300 C 279.200 483.355 279.245 483.400 279.300 483.400 Z"
       stroke="rgb(0,0,0)"
       stroke-width="0.20"
       id="path36"
       style="stroke-width:0.02;stroke-dasharray:none" />
  </g>
  <rect
     style="fill:#000000;stroke:#2b0000;stroke-width:0.200074;stroke-linecap:round;stroke-linejoin:round;stroke-dasharray:none;stroke-opacity:0.329268;paint-order:stroke markers fill"
     id="rect37"
     width="260.19595"
     height="5.9999261"
     x="10.001233"
     y="486.40189" />
  <rect
     style="fill:#000000;stroke:#2b0000;stroke-width:0.200074;stroke-linecap:round;stroke-linejoin:round;stroke-dasharray:none;stroke-opacity:0.329268;paint-order:stroke markers fill"
     id="rect38"
     width="260.19595"
     height="5.9999261"
     x="9.9976702"
     y="183.20378" />
  <rect
     style="fill:#000000;stroke:#2b0000;stroke-width:0.157;stroke-linecap:round;stroke-linejoin:round;stroke-dasharray:none;stroke-opacity:0.329268;paint-order:stroke markers fill"
     id="rect39"
     width="158.24251"
     height="6.0434079"
     x="279.17935"
     y="183.18196" />
  <rect
     style="fill:#000000;stroke:#2b0000;stroke-width:0.156593;stroke-linecap:round;stroke-linejoin:round;stroke-dasharray:none;stroke-opacity:0.329268;paint-order:stroke markers fill"
     id="rect40"
     width="158.24251"
     height="6.0434079"
     x="279.17963"
     y="486.37906" />
</svg>
